<svg width="1170" height="347" xmlns="http://www.w3.org/2000/svg" xmlns:xlink="http://www.w3.org/1999/xlink" xml:space="preserve" overflow="hidden"><g transform="translate(-77 -157)"><path d="M82.377 210.462C84.9059 209.993 87.4535 209.413 90.0293 208.701 92.605 207.998 95.1995 207.221 97.8314 206.378 100.829 205.441 104.669 204.196 109.352 202.65 114.035 201.105 119.14 199.559 124.666 198.014 130.192 196.468 135.831 195.157 141.591 194.08 147.351 193.003 152.765 192.46 157.823 192.46 165.691 192.46 172.762 193.911 179.038 196.815 185.313 199.718 190.324 203.933 194.071 209.459 197.817 214.986 199.69 221.683 199.69 229.55 199.69 236.294 198.398 242.335 195.831 247.674 193.256 253.013 189.65 257.715 185.013 261.789 180.377 265.864 174.87 269.282 168.51 272.045 162.141 274.808 155.097 277.01 147.37 278.649 139.643 280.288 131.466 281.346 122.849 281.814L117.791 270.153C127.064 269.966 135.868 269.057 144.204 267.409 152.54 265.77 159.958 263.363 166.468 260.169 172.978 256.984 178.101 252.844 181.848 247.74 185.594 242.635 187.467 236.481 187.467 229.26 187.467 224.389 186.297 219.969 183.955 215.988 181.613 212.007 178.213 208.851 173.764 206.509 169.315 204.167 163.902 202.997 157.542 202.997 152.952 202.997 147.941 203.54 142.509 204.617 137.076 205.694 131.597 207.052 126.071 208.691 120.545 210.331 115.272 212.091 110.261 213.955 105.25 215.829 100.782 217.561 96.8386 219.154 92.9047 220.746 89.8138 221.964 87.5659 222.807L82.3676 210.443Z" fill="#3E3A39" transform="matrix(1.00008 0 0 1 0.419438 0.156201)"/><path d="M275.979 172.247C275.417 174.495 274.715 177.352 273.872 180.817 273.029 184.283 272.111 187.917 271.137 191.701 270.153 195.494 269.095 199.082 267.971 202.453 265.723 209.197 262.866 216.288 259.401 223.743 255.935 231.189 252.236 238.42 248.302 245.445 244.368 252.47 240.481 258.605 236.641 263.85L225.822 258.23C228.913 254.577 232.023 250.409 235.17 245.726 238.308 241.043 241.258 236.125 244.021 230.974 246.784 225.822 249.285 220.765 251.533 215.8 253.781 210.836 255.654 206.294 257.153 202.172 258.651 197.677 260.056 192.6 261.368 186.933 262.679 181.267 263.428 176.003 263.616 171.123L275.979 172.247ZM226.244 195.148C228.867 195.522 231.63 195.775 234.533 195.916 237.437 196.056 240.387 196.131 243.384 196.131 248.536 196.131 253.847 195.897 259.326 195.429 264.805 194.96 270.35 194.192 275.97 193.106 281.59 192.029 287.116 190.605 292.548 188.825L292.829 199.363C288.24 200.58 283.21 201.704 277.731 202.734 272.251 203.765 266.585 204.589 260.731 205.188 254.877 205.797 249.088 206.097 243.384 206.097 240.855 206.097 238.158 206.078 235.311 206.031 232.454 205.985 229.663 205.872 226.946 205.675L226.244 195.138ZM309.136 215.66C309.042 218.564 308.967 221.167 308.93 223.462 308.883 225.757 308.902 228.22 308.996 230.843 309.089 233.091 309.211 235.966 309.352 239.479 309.492 242.991 309.651 246.691 309.839 250.578 310.026 254.465 310.194 258.193 310.335 261.752 310.475 265.311 310.541 268.261 310.541 270.603 310.541 274.349 309.698 277.768 308.012 280.859 306.326 283.95 303.676 286.404 300.069 288.24 296.463 290.066 291.752 290.975 285.945 290.975 280.794 290.975 276.11 290.244 271.896 288.802 267.681 287.35 264.281 285.121 261.705 282.133 259.129 279.136 257.846 275.342 257.846 270.753 257.846 266.163 259.082 262.585 261.574 259.448 264.056 256.31 267.428 253.893 271.689 252.207 275.951 250.522 280.7 249.679 285.945 249.679 293.813 249.679 301.044 250.784 307.656 252.985 314.259 255.186 320.207 257.968 325.499 261.34 330.791 264.712 335.352 268.037 339.193 271.315L333.151 280.868C330.435 278.433 327.41 275.904 324.085 273.282 320.76 270.659 317.079 268.252 313.061 266.042 309.033 263.84 304.725 262.042 300.135 260.637 295.546 259.232 290.675 258.53 285.524 258.53 280.372 258.53 276.204 259.607 273.019 261.761 269.835 263.915 268.243 266.585 268.243 269.769 268.243 272.954 269.601 275.717 272.317 277.778 275.033 279.838 279.108 280.868 284.54 280.868 288.474 280.868 291.565 280.232 293.813 278.976 296.061 277.712 297.672 276.026 298.655 273.919 299.639 271.811 300.135 269.498 300.135 266.969 300.135 264.44 300.06 260.927 299.92 256.713 299.779 252.498 299.592 247.983 299.358 243.16 299.123 238.336 298.889 233.512 298.655 228.689 298.421 223.865 298.252 219.538 298.168 215.688L309.127 215.688ZM337.235 219.453C334.706 217.205 331.522 214.864 327.681 212.429 323.841 209.993 319.879 207.68 315.805 205.479 311.731 203.278 308.153 201.479 305.062 200.074L310.822 191.504C313.351 192.628 316.161 193.986 319.252 195.579 322.343 197.171 325.434 198.857 328.524 200.636 331.615 202.416 334.5 204.13 337.17 205.76 339.839 207.399 341.965 208.879 343.557 210.19L337.235 219.463Z" fill="#3E3A39" transform="matrix(1.00008 0 0 1 0.419438 0.156201)"/><path d="M384.441 185.735C384.254 186.858 384.086 188.263 383.945 189.949 383.805 191.635 383.664 193.321 383.524 195.007 383.383 196.693 383.308 198.145 383.308 199.363 383.214 202.266 383.186 205.572 383.233 209.263 383.28 212.962 383.374 216.803 383.514 220.783 383.655 224.764 383.908 228.726 384.282 232.651 385.032 240.425 386.296 247.243 388.076 253.097 389.855 258.951 392.028 263.522 394.613 266.791 397.189 270.069 400.111 271.708 403.399 271.708 405.179 271.708 406.911 270.893 408.597 269.254 410.283 267.615 411.894 265.414 413.44 262.651 414.985 259.888 416.39 256.797 417.655 253.378 418.919 249.96 419.977 246.522 420.82 243.057L429.672 253.032C426.862 260.993 424.024 267.297 421.167 271.933 418.31 276.569 415.407 279.922 412.456 281.974 409.506 284.034 406.434 285.065 403.249 285.065 398.847 285.065 394.585 283.444 390.464 280.213 386.343 276.981 382.784 271.736 379.786 264.477 376.789 257.218 374.635 247.543 373.324 235.46 372.855 231.339 372.499 226.89 372.275 222.113 372.04 217.337 371.9 212.794 371.853 208.485 371.806 204.177 371.788 200.664 371.788 197.948 371.788 196.356 371.741 194.295 371.647 191.766 371.553 189.238 371.272 187.13 370.804 185.444L384.432 185.725ZM457.639 189.668C460.168 192.853 462.575 196.581 464.88 200.833 467.174 205.095 469.282 209.637 471.202 214.461 473.122 219.285 474.855 224.277 476.4 229.429 477.946 234.58 479.21 239.713 480.194 244.808 481.177 249.913 481.898 254.811 482.376 259.485L471.136 264.121C470.574 257.752 469.591 251.261 468.186 244.668 466.781 238.064 465.048 231.648 462.988 225.42 460.927 219.191 458.539 213.318 455.822 207.792 453.106 202.266 450.062 197.489 446.69 193.462L457.649 189.668Z" fill="#3E3A39" transform="matrix(1.00008 0 0 1 0.419438 0.156201)"/><path d="M504.705 191.354C507.328 191.261 509.735 191.148 511.945 190.998 514.147 190.858 515.898 190.746 517.209 190.642 519.457 190.362 522.707 190.015 526.969 189.593 531.231 189.172 536.12 188.704 541.646 188.189 547.172 187.673 553.12 187.139 559.489 186.577 565.858 186.016 572.274 185.454 578.737 184.892 583.888 184.423 588.759 184.03 593.348 183.702 597.938 183.374 602.2 183.093 606.133 182.859 610.067 182.625 613.58 182.466 616.671 182.372L616.671 193.612C614.048 193.612 611.051 193.658 607.679 193.752 604.307 193.846 600.982 194.033 597.704 194.314 594.425 194.595 591.569 195.11 589.133 195.86 584.169 197.452 579.692 199.859 575.711 203.1 571.731 206.331 568.331 210.05 565.521 214.264 562.711 218.479 560.576 222.835 559.133 227.33 557.681 231.826 556.951 236.182 556.951 240.396 556.951 245.829 557.887 250.587 559.761 254.661 561.634 258.736 564.191 262.173 567.422 264.983 570.654 267.793 574.325 270.088 578.446 271.867 582.568 273.647 586.942 274.986 591.578 275.867 596.214 276.757 600.823 277.253 605.422 277.347L601.347 289.008C596.102 288.82 590.857 288.099 585.612 286.835 580.367 285.57 575.356 283.744 570.579 281.356 565.802 278.967 561.54 275.951 557.794 272.298 554.047 268.645 551.097 264.384 548.943 259.513 546.788 254.643 545.711 249.07 545.711 242.794 545.711 235.489 546.994 228.726 549.57 222.488 552.146 216.259 555.443 210.808 559.48 206.116 563.507 201.433 567.675 197.826 571.984 195.298 568.986 195.672 565.259 196.094 560.81 196.562 556.361 197.03 551.612 197.527 546.545 198.033 541.487 198.548 536.401 199.138 531.306 199.793 526.201 200.449 521.443 201.086 517.041 201.695 512.639 202.304 508.939 202.941 505.942 203.587L504.677 191.364ZM596.449 210.883C597.479 212.382 598.715 214.283 600.176 216.578 601.628 218.873 603.052 221.214 604.457 223.603 605.862 225.991 607.033 228.267 607.969 230.412L600.804 233.784C599.212 230.318 597.432 226.881 595.465 223.462 593.498 220.043 591.438 216.887 589.283 213.983L596.449 210.893ZM611.763 204.982C612.886 206.481 614.198 208.354 615.696 210.602 617.195 212.85 618.666 215.173 620.127 217.552 621.578 219.94 622.862 222.216 623.986 224.361L616.68 227.874C614.994 224.408 613.139 220.989 611.126 217.618 609.112 214.246 607.023 211.108 604.878 208.204L611.763 204.973Z" fill="#3E3A39" transform="matrix(1.00008 0 0 1 0.419438 0.156201)"/><path d="M669.927 177.305C669.647 178.054 669.337 178.991 669.019 180.115 668.691 181.239 668.382 182.391 668.101 183.562 667.82 184.732 667.586 185.735 667.399 186.587 666.837 189.209 666.247 192.328 665.638 195.925 665.029 199.531 664.42 203.371 663.811 207.446 663.203 211.52 662.659 215.66 662.2 219.875 661.732 224.09 661.357 228.145 661.076 232.032 660.795 235.919 660.655 239.46 660.655 242.635 660.655 246.007 660.767 249.285 661.011 252.47 661.245 255.654 661.545 258.979 661.929 262.445 662.678 260.291 663.521 257.949 664.458 255.42 665.394 252.891 666.378 250.409 667.408 247.974 668.438 245.539 669.328 243.338 670.077 241.371L675.838 246.007C674.62 249.191 673.328 252.779 671.979 256.759 670.621 260.74 669.384 264.562 668.26 268.215 667.136 271.867 666.34 274.818 665.872 277.066 665.685 278.002 665.516 279.079 665.375 280.297 665.235 281.515 665.169 282.545 665.169 283.388 665.263 284.044 665.329 284.84 665.375 285.776 665.422 286.713 665.488 287.556 665.582 288.305L655.606 289.008C654.108 283.95 652.843 277.656 651.813 270.116 650.783 262.576 650.268 254.081 650.268 244.611 650.268 239.366 650.502 233.962 650.97 228.389 651.438 222.816 652.019 217.337 652.731 211.951 653.433 206.565 654.136 201.648 654.838 197.199 655.541 192.75 656.122 189.078 656.599 186.175 656.786 184.489 656.974 182.756 657.161 180.976 657.349 179.197 657.442 177.605 657.442 176.2L669.946 177.324ZM735.82 188.263 735.82 220.577C735.82 224.979 735.913 229.457 736.101 233.999 736.288 238.542 736.494 242.972 736.728 247.271 736.962 251.58 737.168 255.607 737.356 259.354 737.543 263.1 737.637 266.379 737.637 269.189 737.637 274.902 735.689 279.332 731.811 282.47 727.924 285.608 722.182 287.172 714.596 287.172 709.538 287.172 704.948 286.441 700.827 284.99 696.706 283.538 693.474 281.365 691.133 278.452 688.791 275.548 687.621 271.896 687.621 267.493 687.621 264.215 688.557 261.096 690.43 258.146 692.304 255.195 695.226 252.807 699.216 250.98 703.197 249.154 708.273 248.236 714.455 248.236 720.637 248.236 726.491 248.92 731.736 250.278 736.981 251.636 741.758 253.397 746.066 255.542 750.375 257.696 754.29 260.038 757.803 262.567 761.315 265.096 764.378 267.531 767.01 269.872L760.968 279.707C756.566 275.118 751.789 271.09 746.638 267.624 741.486 264.159 736.194 261.471 730.762 259.551 725.329 257.631 719.803 256.666 714.183 256.666 709.219 256.666 705.211 257.631 702.166 259.551 699.122 261.471 697.596 263.934 697.596 266.931 697.596 270.397 699.047 273.019 701.951 274.799 704.855 276.579 708.742 277.468 713.612 277.468 717.359 277.468 720.187 276.888 722.107 275.708 724.028 274.537 725.386 272.973 726.182 271.006 726.978 269.039 727.371 266.838 727.371 264.402 727.371 262.342 727.306 259.654 727.165 256.329 727.025 253.004 726.837 249.304 726.603 245.23 726.369 241.155 726.154 237.034 725.966 232.866 725.779 228.698 725.685 224.792 725.685 221.139L725.685 188.263 735.801 188.263ZM691.845 215.66C700.274 216.222 708.657 216.484 716.993 216.437 725.329 216.391 733.338 216.081 741.018 215.52 748.698 214.958 755.723 214.302 762.092 213.553L762.092 223.809C756.098 224.464 749.232 225.026 741.505 225.495 733.778 225.963 725.676 226.272 717.199 226.413 708.723 226.553 700.274 226.394 691.845 225.926L691.845 215.669ZM693.952 183.065C699.666 183.533 705.473 183.796 711.374 183.833 717.274 183.88 723.081 183.786 728.795 183.552 734.508 183.318 739.913 182.99 745.027 182.569 750.131 182.147 754.74 181.66 758.87 181.098L758.87 190.933C754.936 191.401 750.394 191.823 745.242 192.197 740.091 192.572 734.658 192.853 728.945 193.04 723.231 193.228 717.396 193.321 711.458 193.321 705.52 193.321 699.675 193.181 693.971 192.9L693.971 183.065Z" fill="#3E3A39" transform="matrix(1.00008 0 0 1 0.419438 0.156201)"/><path d="M881.373 203.718C879.874 204.655 878.235 205.591 876.455 206.528 874.676 207.464 872.756 208.448 870.695 209.478 867.51 211.164 863.764 213.084 859.455 215.239 855.147 217.393 850.576 219.781 845.762 222.404 840.938 225.026 836.283 227.883 831.787 230.974 825.231 235.189 820.098 239.638 816.408 244.321 812.708 249.004 810.863 254.015 810.863 259.354 810.863 265.161 813.626 269.779 819.152 273.188 824.678 276.607 833.014 278.321 844.16 278.321 849.312 278.321 854.65 278.105 860.177 277.693 865.703 277.272 871.013 276.691 876.128 275.932 881.232 275.183 885.559 274.387 889.128 273.544L888.987 286.048C885.522 286.704 881.448 287.284 876.764 287.809 872.081 288.324 867.023 288.746 861.591 289.073 856.159 289.401 850.492 289.56 844.591 289.56 838.035 289.56 831.993 289.017 826.467 287.94 820.941 286.863 816.145 285.205 812.062 282.957 807.987 280.709 804.831 277.74 802.583 274.04 800.335 270.341 799.211 265.873 799.211 260.618 799.211 255.364 800.26 250.709 802.377 246.353 804.494 241.998 807.575 237.858 811.65 233.924 815.724 229.99 820.473 226.197 825.905 222.544 830.682 219.266 835.553 216.269 840.517 213.553 845.481 210.836 850.183 208.336 854.641 206.041 859.09 203.746 862.809 201.751 865.806 200.065 867.773 198.941 869.552 197.864 871.145 196.834 872.737 195.803 874.282 194.679 875.781 193.462L881.401 203.718ZM814.076 176.321C816.23 182.316 818.571 188.189 821.1 193.958 823.629 199.718 826.158 205.085 828.687 210.04 831.216 215.004 833.557 219.36 835.712 223.106L826.158 228.867C823.816 225.026 821.334 220.484 818.712 215.239 816.089 209.993 813.448 204.42 810.779 198.52 808.109 192.619 805.515 186.765 802.976 180.958L814.076 176.321ZM883.761 174.916C884.979 176.602 886.29 178.597 887.695 180.892 889.1 183.187 890.477 185.51 891.835 187.842 893.193 190.184 894.336 192.338 895.272 194.305L887.686 197.677C886.281 194.773 884.501 191.448 882.347 187.701 880.193 183.955 878.132 180.77 876.165 178.148L883.752 174.916ZM899.216 169.297C900.527 170.983 901.904 172.996 903.355 175.338 904.807 177.679 906.24 180.002 907.645 182.288 909.05 184.582 910.174 186.624 911.017 188.395L903.571 191.766C901.979 188.769 900.133 185.444 898.026 181.791 895.919 178.138 893.83 175.001 891.769 172.378L899.216 169.287Z" fill="#3E3A39" transform="matrix(1.00008 0 0 1 0.419438 0.156201)"/><path d="M1014 180.115C1012.5 181.239 1010.82 182.625 1008.94 184.264 1007.07 185.903 1005.52 187.196 1004.31 188.123 1001.87 190.277 998.92 192.787 995.455 195.635 991.989 198.491 988.336 201.489 984.496 204.626 980.656 207.764 976.956 210.761 973.397 213.618 969.838 216.475 966.747 219.023 964.124 221.27 961.314 223.706 959.441 225.701 958.504 227.246 957.568 228.792 957.596 230.365 958.579 231.948 959.563 233.54 961.549 235.648 964.555 238.27 967.178 240.331 970.175 242.747 973.547 245.511 976.919 248.274 980.497 251.252 984.29 254.427 988.083 257.612 991.942 260.89 995.886 264.262 999.829 267.634 1003.61 270.959 1007.27 274.237 1010.92 277.515 1014.2 280.653 1017.1 283.65L1007.13 292.923C1004.22 289.551 1000.99 286.132 997.431 282.667 994.996 280.138 991.952 277.188 988.299 273.816 984.646 270.444 980.731 266.931 976.563 263.278 972.395 259.626 968.274 256.095 964.199 252.666 960.125 249.248 956.444 246.185 953.175 243.469 948.679 239.722 945.822 236.425 944.605 233.559 943.387 230.702 943.621 227.864 945.307 225.054 946.993 222.245 949.944 219.107 954.159 215.641 956.781 213.393 959.938 210.771 963.637 207.774 967.337 204.776 971.196 201.62 975.233 198.295 979.26 194.97 983.072 191.738 986.678 188.601 990.284 185.463 993.254 182.681 995.604 180.246 997.009 178.841 998.489 177.249 1000.03 175.469 1001.57 173.689 1002.76 172.144 1003.61 170.833L1014.01 180.105Z" fill="#3E3A39" transform="matrix(1.00008 0 0 1 0.419438 0.156201)"/><path d="M93.6634 424.295 259.448 424.295 259.448 437.595 93.6634 437.595 93.6634 424.295ZM97.4099 349.552 256.263 349.552 256.263 391.513 242.214 391.513 242.214 362.29 110.897 362.29 110.897 391.513 97.4099 391.513 97.4099 349.552ZM110.335 326.136 122.137 320.703C125.762 324.572 129.284 328.918 132.721 333.723 136.158 338.528 138.622 342.808 140.12 346.555L127.757 352.736C126.258 349.112 123.823 344.803 120.451 339.811 117.079 334.819 113.707 330.257 110.335 326.136ZM125.134 381.772 218.048 381.772 218.048 394.136 125.134 394.136 125.134 381.772ZM169.156 410.808 183.393 410.808 183.393 473.937C183.393 478.18 182.737 481.43 181.426 483.678 180.115 485.926 177.708 487.612 174.214 488.736 170.842 489.738 166.374 490.356 160.82 490.609 155.266 490.862 148.176 490.984 139.558 490.984 139.062 488.989 138.219 486.675 137.03 484.052 135.84 481.43 134.622 479.182 133.377 477.309 138.247 477.43 142.809 477.524 147.052 477.59 151.294 477.655 154.947 477.683 158.01 477.683 161.073 477.683 163.227 477.618 164.473 477.496 166.346 477.374 167.592 477.028 168.219 476.466 168.847 475.904 169.156 474.995 169.156 473.75L169.156 410.808ZM158.478 322.202 170.655 317.519C173.774 322.015 176.808 326.979 179.74 332.411 182.672 337.844 184.77 342.499 186.016 346.367L172.903 351.612C171.9 347.613 169.999 342.836 167.189 337.282 164.379 331.728 161.476 326.698 158.478 322.202ZM213.74 381.772 217.112 381.772 220.109 381.023 229.288 387.767C225.045 392.009 220.137 396.224 214.583 400.411 209.029 404.598 203.184 408.494 197.068 412.119 190.952 415.744 184.957 418.863 179.084 421.485 178.082 420.108 176.808 418.647 175.244 417.083 173.68 415.519 172.341 414.245 171.217 413.243 176.462 410.873 181.801 408.063 187.233 404.813 192.666 401.563 197.695 398.163 202.313 394.604 206.931 391.045 210.743 387.645 213.74 384.395L213.74 381.772ZM231.349 319.58 246.147 324.637C242.148 330.379 237.811 336.186 233.128 342.059 228.445 347.931 224.165 352.924 220.296 357.045L209.057 352.174C211.558 349.299 214.208 345.965 217.018 342.152 219.828 338.34 222.516 334.472 225.073 330.538 227.63 326.604 229.728 322.951 231.349 319.58Z" fill="#3E3A39" transform="matrix(1.00008 0 0 1 0.419438 0.156201)"/><path d="M286.985 326.511 300.847 326.511 300.847 490.984 286.985 490.984 286.985 326.511ZM293.541 353.673 345.618 353.673 345.618 363.976 293.541 363.976 293.541 353.673ZM294.665 326.511 354.61 326.511 354.61 392.45 294.665 392.45 294.665 381.21 341.497 381.21 341.497 337.75 294.665 337.75 294.665 326.511ZM327.447 409.309 340.56 409.309 340.56 475.623 327.447 475.623 327.447 409.309ZM333.629 409.309 397.882 409.309 397.882 464.383 333.629 464.383 333.629 452.394 384.582 452.394 384.582 421.298 333.629 421.298 333.629 409.309ZM434.224 326.511 434.224 337.75 384.957 337.75 384.957 381.397 434.224 381.397 434.224 392.637 371.656 392.637 371.656 326.511 434.224 326.511ZM379.899 353.673 433.1 353.673 433.1 363.976 379.899 363.976 379.899 353.673ZM426.73 326.511 440.967 326.511 440.967 471.876C440.967 476.625 440.34 480.212 439.094 482.648 437.848 485.083 435.657 486.928 432.538 488.174 429.419 489.419 425.073 490.169 419.518 490.422 413.964 490.674 407.061 490.796 398.819 490.796 398.697 489.419 398.35 487.865 397.789 486.113 397.227 484.362 396.599 482.619 395.915 480.868 395.231 479.116 394.51 477.618 393.761 476.372 398.004 476.494 402.031 476.559 405.844 476.559L422.047 476.559C423.799 476.438 425.016 476.026 425.7 475.342 426.384 474.658 426.73 473.44 426.73 471.689L426.73 326.511Z" fill="#3E3A39" transform="matrix(1.00008 0 0 1 0.419438 0.156201)"/><path d="M562.73 347.866C561.484 357.607 559.892 367.788 557.953 378.4 556.014 389.012 553.551 399.315 550.553 409.309 546.807 422.169 542.658 432.912 538.096 441.529 533.535 450.146 528.636 456.637 523.391 461.011 518.146 465.385 512.648 467.568 506.906 467.568 501.165 467.568 496.107 465.573 490.984 461.573 485.86 457.574 481.683 451.804 478.433 444.246 475.183 436.687 473.562 427.789 473.562 417.551 473.562 407.314 475.651 397.629 479.838 388.516 484.024 379.402 489.831 371.31 497.259 364.257 504.687 357.204 513.397 351.612 523.391 347.491 533.385 343.37 544.063 341.309 555.424 341.309 566.785 341.309 576.311 343.117 585.115 346.742 593.92 350.367 601.441 355.331 607.688 361.634 613.935 367.938 618.74 375.253 622.112 383.552 625.484 391.86 627.17 400.758 627.17 410.246 627.17 423.359 624.388 434.907 618.834 444.901 613.28 454.895 605.281 463.006 594.856 469.254 584.432 475.501 571.787 479.622 556.923 481.617L548.118 467.755C551.115 467.38 553.991 467.006 556.735 466.631 559.48 466.256 561.98 465.816 564.228 465.32 570.223 463.943 576.058 461.789 581.743 458.857 587.429 455.925 592.515 452.179 597.011 447.617 601.506 443.056 605.094 437.624 607.782 431.32 610.47 425.016 611.809 417.804 611.809 409.684 611.809 402.069 610.564 394.979 608.063 388.422 605.562 381.866 601.881 376.087 597.011 371.094 592.14 366.102 586.211 362.168 579.215 359.293 572.218 356.417 564.228 354.984 555.237 354.984 544.999 354.984 535.727 356.858 527.419 360.604 519.111 364.351 512.058 369.249 506.251 375.309 500.444 381.369 495.976 387.982 492.857 395.166 489.738 402.35 488.174 409.375 488.174 416.24 488.174 424.108 489.204 430.571 491.265 435.629 493.325 440.686 495.826 444.405 498.758 446.774 501.689 449.144 504.593 450.334 507.468 450.334 510.344 450.334 513.528 448.863 516.647 445.931 519.766 443 522.951 438.251 526.201 431.695 529.451 425.138 532.636 416.615 535.755 406.125 538.499 397.133 540.841 387.579 542.779 377.464 544.718 367.348 546.123 357.42 546.994 347.679L562.73 347.866Z" fill="#3E3A39" transform="matrix(1.00008 0 0 1 0.419438 0.156201)"/><path d="M683.368 318.456 690.861 318.456 690.861 321.453 694.982 321.453 694.982 325.199C691.358 332.318 686.431 340.466 680.184 349.645 673.936 358.825 666.2 367.535 656.955 375.778 656.206 374.775 655.335 373.717 654.333 372.593 653.33 371.469 652.272 370.373 651.148 369.315 650.024 368.256 649.022 367.413 648.151 366.786 653.892 362.037 659.016 356.886 663.512 351.331 668.007 345.777 671.904 340.157 675.22 334.472 678.526 328.787 681.242 323.448 683.368 318.456ZM652.834 472.064C658.95 470.94 665.919 469.628 673.721 468.13 681.523 466.631 689.803 465.039 698.542 463.353 707.28 461.667 716.029 459.887 724.767 458.014L725.704 469.816C713.462 472.56 701.192 475.276 688.894 477.964 676.596 480.652 665.572 482.994 655.831 484.989L652.834 472.064ZM654.707 396.945 723.269 396.945 723.269 409.309 654.707 409.309 654.707 396.945ZM658.828 421.485 668.569 419.237C670.564 424.857 672.25 430.983 673.627 437.595 675.004 444.217 675.875 449.893 676.25 454.642L665.759 457.265C665.638 452.394 664.917 446.653 663.605 440.031 662.294 433.409 660.702 427.227 658.828 421.485ZM664.635 364.913 718.398 364.913 718.398 376.902 664.635 376.902 664.635 364.913ZM683.93 369.408 696.481 369.408 696.481 471.502 683.93 473.375 683.93 369.408ZM685.616 318.456 696.106 318.456C699.853 321.827 703.759 325.508 707.814 329.508 711.87 333.507 715.682 337.469 719.241 341.403 722.801 345.337 725.704 348.868 727.952 351.987L718.398 362.665C716.272 359.546 713.556 355.893 710.25 351.706 706.943 347.519 703.384 343.37 699.572 339.249 695.76 335.128 692.041 331.503 688.426 328.384L685.616 328.384 685.616 318.456ZM710.905 417.551 721.958 420.361C720.337 426.103 718.707 432.069 717.087 438.251 715.467 444.433 713.837 449.706 712.217 454.08L703.037 451.27C704.04 448.273 705.033 444.742 706.035 440.686 707.037 436.631 707.974 432.566 708.845 428.51 709.716 424.454 710.409 420.802 710.905 417.551ZM751.742 456.515 763.731 464.196C760.107 467.568 755.892 470.911 751.087 474.218 746.282 477.524 741.252 480.615 736.007 483.491 730.762 486.366 725.77 488.857 721.021 490.984 720.019 489.607 718.707 487.986 717.087 486.113 715.467 484.24 713.968 482.619 712.591 481.243 717.34 479.248 722.173 476.868 727.109 474.124 732.045 471.38 736.728 468.476 741.159 465.413 745.589 462.351 749.12 459.391 751.742 456.515ZM727.577 327.822 738.817 323.513C741.936 328.131 744.971 333.32 747.902 339.062 750.834 344.803 752.932 349.739 754.178 353.86L742.189 358.918C741.065 354.797 739.098 349.805 736.288 343.932 733.478 338.059 730.575 332.692 727.577 327.822ZM732.823 363.227 814.497 363.227 814.497 453.706 732.823 453.706 732.823 363.227ZM745.748 374.092 745.748 390.014 801.197 390.014 801.197 374.092 745.748 374.092ZM745.748 400.317 745.748 416.24 801.197 416.24 801.197 400.317 745.748 400.317ZM745.748 426.543 745.748 442.841 801.197 442.841 801.197 426.543 745.748 426.543ZM766.354 318.456 779.467 318.456 779.467 370.72 766.354 370.72 766.354 318.456ZM783.213 464.196 792.954 456.89C797.076 459.634 801.197 462.575 805.318 465.694 809.439 468.813 813.345 471.942 817.026 475.061 820.707 478.18 823.798 481.055 826.299 483.678L814.122 490.796C811.753 488.174 808.877 485.298 805.505 482.179 802.133 479.06 798.509 475.932 794.64 472.813 790.772 469.694 786.96 466.818 783.213 464.196ZM806.067 322.389 819.18 327.447C816.436 332.945 813.495 338.528 810.376 344.213 807.257 349.898 804.381 354.797 801.759 358.918L790.706 354.422C792.458 351.547 794.294 348.241 796.233 344.494 798.171 340.747 800.007 336.907 801.759 332.973 803.51 329.04 804.943 325.508 806.067 322.389Z" fill="#3E3A39" transform="matrix(1.00008 0 0 1 0.419438 0.156201)"/><g><g><path d="M1209.36 273.844 1175.14 239.619C1158.56 223.041 1131.44 223.041 1114.87 239.619L1064.47 290.019C1077.43 288.174 1090.94 291.106 1102.16 298.796L1138.09 262.857C1141.83 259.12 1148.15 259.12 1151.9 262.857L1186.13 297.082C1189.86 300.819 1189.87 307.141 1186.13 310.888L1150.19 346.826 1142.5 354.516 1113.17 383.842 1112.52 384.488C1108.79 388.225 1102.47 388.225 1098.72 384.488L1098.1 383.87 1065.11 350.882 1041.87 374.12 1074.86 407.108 1075.48 407.726C1077.85 410.105 1080.45 412.119 1083.2 413.814 1099.62 423.949 1121.55 421.926 1135.75 407.726L1136.4 407.08 1158.95 384.526 1209.35 334.125C1225.93 317.547 1225.93 290.431 1209.35 273.853" fill="#3F3B3A" transform="matrix(1.00008 0 0 1 0.419438 0.156201)"/><path d="M1075.52 421.485 1039.58 457.424C1035.84 461.161 1029.52 461.161 1025.77 457.424L991.549 423.199C987.812 419.453 987.812 413.14 991.549 409.393L1027.49 373.455 1035.18 365.765 1064.5 336.439 1065.15 335.793C1068.89 332.056 1075.21 332.056 1078.96 335.793L1079.57 336.411 1112.56 369.399 1135.8 346.161 1102.8 313.173 1102.18 312.555C1099.81 310.185 1097.21 308.162 1094.47 306.467 1078.05 296.332 1056.11 298.355 1041.91 312.555L1041.27 313.201 1018.71 335.755 968.311 386.155C951.742 402.734 951.733 429.849 968.311 446.428L1002.54 480.652C1019.11 497.231 1046.23 497.231 1062.81 480.652L1113.21 430.252C1100.25 432.097 1086.73 429.166 1075.52 421.476" fill="#3F3B3A" transform="matrix(1.00008 0 0 1 0.419438 0.156201)"/></g></g></g></svg>